<?xml version="1.0" encoding="UTF-8"?><svg xmlns="http://www.w3.org/2000/svg" width="362.07159" height="400" viewBox="0 0 362.07159 400">
  <defs>
    <style>
      .uuid-ef94056b-1aa3-4062-bf18-89f38f9ba451 {
        fill: #e76f51;
        stroke-width: 0px;
      }
    </style>
  </defs>
  <g id="uuid-9a24b4e6-0056-4afb-bc05-f6539c78a304" data-name="图层 1">
    <path class="uuid-ef94056b-1aa3-4062-bf18-89f38f9ba451" d="M200,378.82349c-98.76147,0-178.82355-80.06201-178.82355-178.82349S101.23853,21.17645,200,21.17645c49.1712,0,93.69379,19.85675,126.01758,51.97791l-9.21729,9.06152-13.68353,13.68353h58.95483l-.27484-58.41785-20.75488,20.75488C304.8822,22.25067,255.0459,0,200,0,89.54303,0,0,89.54303,0,200s89.54303,200,200,200c66.51141,0,125.42438-32.47876,161.78607-82.42859h-27.05884c-32.77734,37.53558-80.97955,61.25208-134.72723,61.25208Z"/>
  </g>
  <g id="uuid-098c8597-fb29-4966-af20-2bac699a0f43" data-name="图层 2">
    <path class="uuid-ef94056b-1aa3-4062-bf18-89f38f9ba451" d="M265.16111,172.37659l-10.89001-.1106c-.06104,0-.11053.0611-.11053,0v-37.66809c0-32.04663-26.64557-58.22485-58.64423-56.47137-29.20868,1.60052-52.4079,25.76361-52.4668,55.35815-.00012.06183.0506.11298.11243,11.60724h22.00165c.06006-11.49426.10803-11.54279.10822-11.60291.05615-17.61346,13.77332-32.0108,31.11133-33.15179,19.53107-1.28534,35.55518,14.49091,35.55518,34.06421v21.30786c0,.0611-.0495,16.6673-.11053,16.6673h-99.77893c-12.33405,0-22.33276,9.99872-22.33276,22.33276v94.44391c0,12.22223,9.88892,22.22223,22.22223,22.22223h133.22278c12.33405,0,22.33276-9.99872,22.33276-22.33282v-94.33331c0-12.33405-9.99872-22.33276-22.33276-22.33276ZM215.84159,261.68103v20.30774h-30.24548v-12.9624h-4.3208c-4.75287,0-8.6416-3.88867-8.6416-8.64154v-12.9624h-6.4812c-1.72827,0-2.59247-2.1604-1.72827-3.4566l8.20947-10.802c.8642-16.41901,13.82654-28.94928,30.24554-28.94928,16.85107,0,30.24554,13.39447,30.24554,30.24554,0,12.09821-6.91327,22.46808-17.2832,27.22095Z"/>
  </g>
</svg>